<svg xmlns="http://www.w3.org/2000/svg" viewBox="0 0 100 100" width="100%" height="100%">

      <defs>
        <radialGradient id="bg" cx="50%" cy="50%" r="50%"><stop offset="0%" stop-color="#ff7675"/><stop offset="100%" stop-color="#d63031"/></radialGradient>
        <radialGradient id="cloud" cx="50%" cy="50%" r="50%"><stop offset="0%" stop-color="#fd79a8"/><stop offset="100%" stop-color="#e84393"/></radialGradient>
      </defs>
      <path d="M 20 35 C 10 25 15 5 35 15 C 45 0 65 0 70 15 C 85 5 95 25 80 35 Z" fill="url(#cloud)"/>
      <circle cx="25" cy="18" r="4" fill="#ffeaa7"/>
      <circle cx="75" cy="18" r="4" fill="#ffeaa7"/>
      <circle cx="50" cy="8" r="5" fill="#74b9ff"/>
      <circle cx="50" cy="62" r="30" fill="#ffeaa7"/>
      <path d="M38 52 L46 60 M46 52 L38 60" stroke="#2d3436" stroke-width="3.5" stroke-linecap="round"/>
      <path d="M54 52 L62 60 M62 52 L54 60" stroke="#2d3436" stroke-width="3.5" stroke-linecap="round"/>
      <ellipse cx="50" cy="74" rx="10" ry="12" fill="#2d3436"/>
      <ellipse cx="50" cy="78" rx="6" ry="6" fill="#d63031"/>
    
</svg>